<svg xmlns="http://www.w3.org/2000/svg" viewBox="0 0 512 512">
<defs>
<linearGradient id="o" x1="0" y1="0" x2="1" y2="1"><stop stop-color="#FFB126"/><stop offset=".55" stop-color="#FF8A16"/><stop offset="1" stop-color="#F0521A"/></linearGradient>
<linearGradient id="d" x1="0" y1="0" x2="1" y2="1"><stop stop-color="#20252B"/><stop offset="1" stop-color="#11161C"/></linearGradient>
</defs>
<path d="M166 62Q170 42 194 42H318Q342 42 346 62L414 424Q420 458 386 458H126Q92 458 98 424Z" fill="url(#d)"/>
<rect x="128" y="448" width="54" height="24" rx="8" fill="#151A20"/><rect x="330" y="448" width="54" height="24" rx="8" fill="#151A20"/>
<g stroke="#F8F8F5" stroke-width="12" stroke-linecap="round"><line x1="246" y1="92" x2="246" y2="314"/><line x1="218" y1="126" x2="274" y2="126"/><line x1="218" y1="174" x2="274" y2="174"/><line x1="218" y1="222" x2="274" y2="222"/><line x1="218" y1="270" x2="274" y2="270"/></g>
<line x1="246" y1="374" x2="354" y2="168" stroke="url(#o)" stroke-width="18" stroke-linecap="round"/>
<g transform="translate(326 194) rotate(28)"><rect x="-25" y="-30" width="50" height="60" rx="12" fill="url(#o)"/></g>
<circle cx="246" cy="374" r="49" fill="url(#o)"/><circle cx="246" cy="374" r="32" fill="#171C22"/>
</svg>